<svg clip-rule="evenodd" fill-rule="evenodd" stroke-linejoin="round" stroke-miterlimit="1.41421" viewBox="0 0 502 172" xmlns="http://www.w3.org/2000/svg" xmlns:xlink="http://www.w3.org/1999/xlink"><clipPath id="a"><path clip-rule="evenodd" d="m0 0h501.745v171.729h-501.745z"/></clipPath><path d="m0 0h501.745v171.729h-501.745z" fill="none"/><g clip-path="url(#a)"><path d="m465.469 1.231c-5.017 1.254-2.927 9.617 2.091 7.944 16.724-4.181 24.25 7.108 25.922 22.16 1.255 13.379-5.435 24.25-15.888 32.194-25.504 19.233-64.388 3.345-89.475-7.944-40.556-18.815-83.622-44.319-128.359-23.414-5.854 2.509-10.871 6.69-15.052 11.289-7.108-5.017-14.216-8.78-20.069-11.289-24.669-10.453-51.846-5.435-68.152 16.725-.418.836-1.254 2.09-2.091 3.344-9.616-14.215-22.996-27.595-40.974-28.013-20.488-.418-40.139 10.453-51.428 27.177-22.996-15.052-55.19-19.233-61.462 13.38-.836 5.435 7.108 7.526 7.944 2.09 4.182-23.414 27.178-20.905 44.32-12.543 1.672.836 3.345 2.09 5.017 2.927-2.926 5.435-5.017 11.289-5.853 17.978-1.673 12.126 1.672 41.393 19.651 40.139 16.306-1.255 16.724-30.104 12.125-40.557-2.927-6.689-8.362-12.961-15.052-18.397 9.617-12.543 24.669-22.159 38.466-23.832 20.069-2.508 33.449 12.962 43.065 28.85-13.797 34.703-33.867 119.997 9.617 109.544 47.664-11.289 16.306-80.695 1.672-107.036-.836-1.254-1.254-2.508-2.09-3.344 17.978-30.104 51.845-29.268 79.858-9.617-10.452 15.888-13.797 36.794-4.599 53.518 10.871 18.815 38.884 4.181 40.557-13.38 1.672-15.888-10.453-30.521-24.251-41.81 40.139-44.738 115.398 9.198 158.045 24.668 30.94 11.289 77.769 11.289 90.73-25.923 8.78-25.086-6.69-53.936-34.285-46.828zm-392.186 71.497c2.927 4.181 4.181 9.198 5.018 14.215.418 3.763-4.181 28.014-12.962 15.889-9.198-12.962-7.526-27.596-.418-40.139 2.927 2.927 5.854 6.272 8.362 10.035zm102.019 52.681c2.508 13.38-2.927 47.247-25.087 35.958-11.289-5.854-9.198-28.85-8.78-38.466.836-18.397 5.854-36.794 12.961-53.518.418.836.837 1.672 1.255 2.509 9.616 16.724 16.306 34.703 19.651 53.517zm71.914-68.988c9.617 8.363 27.596 28.85 16.725 41.811-11.707 13.798-24.669 0-25.505-12.961-.836-9.198 1.255-19.651 6.272-27.595.418-.836 1.254-1.673 1.672-2.091 0 0 .418.418.836.836z" fill="#d48f04" fill-rule="nonzero"/></g></svg>